<mxfile host="app.diagrams.net" modified="2021-10-23T07:36:29.865Z" agent="5.0 (Windows NT 10.0; Win64; x64) AppleWebKit/537.36 (KHTML, like Gecko) Chrome/94.0.4606.81 Safari/537.36" etag="DcehPB3mZ54yZQtjQK51" version="15.5.6" type="github">
  <diagram id="D62JFYNQMkCzxWOOMy9K" name="Page-1">
    <mxGraphModel dx="1221" dy="644" grid="1" gridSize="10" guides="1" tooltips="1" connect="1" arrows="1" fold="1" page="1" pageScale="1" pageWidth="1169" pageHeight="1654" math="0" shadow="0">
      <root>
        <mxCell id="0" />
        <mxCell id="1" parent="0" />
        <mxCell id="1DI5bKhyY3I2mJ6AFxC4-1" value="Administrator" style="shape=umlActor;verticalLabelPosition=bottom;verticalAlign=top;html=1;outlineConnect=0;" vertex="1" parent="1">
          <mxGeometry x="150" y="290" width="30" height="60" as="geometry" />
        </mxCell>
        <mxCell id="1DI5bKhyY3I2mJ6AFxC4-2" value="Teacher" style="shape=umlActor;verticalLabelPosition=bottom;verticalAlign=top;html=1;outlineConnect=0;" vertex="1" parent="1">
          <mxGeometry x="555" y="550" width="30" height="60" as="geometry" />
        </mxCell>
        <mxCell id="1DI5bKhyY3I2mJ6AFxC4-3" value="Student" style="shape=umlActor;verticalLabelPosition=bottom;verticalAlign=top;html=1;outlineConnect=0;" vertex="1" parent="1">
          <mxGeometry x="150" y="570" width="30" height="60" as="geometry" />
        </mxCell>
        <mxCell id="1DI5bKhyY3I2mJ6AFxC4-4" value="Vistor" style="shape=umlActor;verticalLabelPosition=bottom;verticalAlign=top;html=1;outlineConnect=0;" vertex="1" parent="1">
          <mxGeometry x="555" y="300" width="30" height="60" as="geometry" />
        </mxCell>
        <mxCell id="1DI5bKhyY3I2mJ6AFxC4-6" value="Manage Semester" style="ellipse;whiteSpace=wrap;html=1;" vertex="1" parent="1">
          <mxGeometry x="295" y="180" width="75" height="50" as="geometry" />
        </mxCell>
        <mxCell id="1DI5bKhyY3I2mJ6AFxC4-7" value="Manage department" style="ellipse;whiteSpace=wrap;html=1;" vertex="1" parent="1">
          <mxGeometry x="295" y="110" width="75" height="50" as="geometry" />
        </mxCell>
        <mxCell id="1DI5bKhyY3I2mJ6AFxC4-8" value="Manage subject" style="ellipse;whiteSpace=wrap;html=1;" vertex="1" parent="1">
          <mxGeometry x="295" y="240" width="75" height="50" as="geometry" />
        </mxCell>
        <mxCell id="1DI5bKhyY3I2mJ6AFxC4-9" value="Manage student" style="ellipse;whiteSpace=wrap;html=1;" vertex="1" parent="1">
          <mxGeometry x="295" y="300" width="75" height="50" as="geometry" />
        </mxCell>
        <mxCell id="1DI5bKhyY3I2mJ6AFxC4-10" value="Manage teacher" style="ellipse;whiteSpace=wrap;html=1;" vertex="1" parent="1">
          <mxGeometry x="295" y="360" width="75" height="50" as="geometry" />
        </mxCell>
        <mxCell id="1DI5bKhyY3I2mJ6AFxC4-11" value="Manage timetable" style="ellipse;whiteSpace=wrap;html=1;" vertex="1" parent="1">
          <mxGeometry x="295" y="500" width="75" height="50" as="geometry" />
        </mxCell>
        <mxCell id="1DI5bKhyY3I2mJ6AFxC4-12" value="View timetable" style="ellipse;whiteSpace=wrap;html=1;" vertex="1" parent="1">
          <mxGeometry x="295" y="580" width="75" height="50" as="geometry" />
        </mxCell>
        <mxCell id="1DI5bKhyY3I2mJ6AFxC4-28" value="Login" style="ellipse;whiteSpace=wrap;html=1;" vertex="1" parent="1">
          <mxGeometry x="295" y="430" width="75" height="50" as="geometry" />
        </mxCell>
        <mxCell id="1DI5bKhyY3I2mJ6AFxC4-32" value="View home page" style="ellipse;whiteSpace=wrap;html=1;" vertex="1" parent="1">
          <mxGeometry x="410" y="210" width="75" height="50" as="geometry" />
        </mxCell>
        <mxCell id="1DI5bKhyY3I2mJ6AFxC4-33" value="view about us" style="ellipse;whiteSpace=wrap;html=1;" vertex="1" parent="1">
          <mxGeometry x="410" y="290" width="75" height="50" as="geometry" />
        </mxCell>
        <mxCell id="1DI5bKhyY3I2mJ6AFxC4-34" value="view contact us" style="ellipse;whiteSpace=wrap;html=1;" vertex="1" parent="1">
          <mxGeometry x="410" y="360" width="75" height="50" as="geometry" />
        </mxCell>
        <mxCell id="1DI5bKhyY3I2mJ6AFxC4-35" value="Register" style="ellipse;whiteSpace=wrap;html=1;" vertex="1" parent="1">
          <mxGeometry x="410" y="430" width="75" height="50" as="geometry" />
        </mxCell>
        <mxCell id="1DI5bKhyY3I2mJ6AFxC4-49" value="" style="endArrow=none;html=1;rounded=0;exitX=0.5;exitY=0.5;exitDx=0;exitDy=0;exitPerimeter=0;entryX=0;entryY=1;entryDx=0;entryDy=0;" edge="1" parent="1" source="1DI5bKhyY3I2mJ6AFxC4-3" target="1DI5bKhyY3I2mJ6AFxC4-28">
          <mxGeometry width="50" height="50" relative="1" as="geometry">
            <mxPoint x="400" y="410" as="sourcePoint" />
            <mxPoint x="300" y="480" as="targetPoint" />
          </mxGeometry>
        </mxCell>
        <mxCell id="1DI5bKhyY3I2mJ6AFxC4-50" value="" style="endArrow=none;html=1;rounded=0;exitX=0.5;exitY=0.5;exitDx=0;exitDy=0;exitPerimeter=0;entryX=0;entryY=0.5;entryDx=0;entryDy=0;" edge="1" parent="1" source="1DI5bKhyY3I2mJ6AFxC4-3" target="1DI5bKhyY3I2mJ6AFxC4-12">
          <mxGeometry width="50" height="50" relative="1" as="geometry">
            <mxPoint x="175" y="609.9999999999998" as="sourcePoint" />
            <mxPoint x="316.1964694393705" y="482.81852070236164" as="targetPoint" />
          </mxGeometry>
        </mxCell>
        <mxCell id="1DI5bKhyY3I2mJ6AFxC4-52" value="" style="endArrow=none;html=1;rounded=0;entryX=0.5;entryY=0.5;entryDx=0;entryDy=0;entryPerimeter=0;exitX=1;exitY=0.5;exitDx=0;exitDy=0;" edge="1" parent="1" source="1DI5bKhyY3I2mJ6AFxC4-12" target="1DI5bKhyY3I2mJ6AFxC4-2">
          <mxGeometry width="50" height="50" relative="1" as="geometry">
            <mxPoint x="370" y="610" as="sourcePoint" />
            <mxPoint x="500" y="607.4999999999998" as="targetPoint" />
          </mxGeometry>
        </mxCell>
        <mxCell id="1DI5bKhyY3I2mJ6AFxC4-53" value="" style="endArrow=none;html=1;rounded=0;entryX=0.5;entryY=0.5;entryDx=0;entryDy=0;entryPerimeter=0;exitX=1;exitY=1;exitDx=0;exitDy=0;" edge="1" parent="1" source="1DI5bKhyY3I2mJ6AFxC4-28" target="1DI5bKhyY3I2mJ6AFxC4-2">
          <mxGeometry width="50" height="50" relative="1" as="geometry">
            <mxPoint x="380" y="614.9999999999998" as="sourcePoint" />
            <mxPoint x="580" y="590.0000000000002" as="targetPoint" />
          </mxGeometry>
        </mxCell>
        <mxCell id="1DI5bKhyY3I2mJ6AFxC4-54" value="" style="endArrow=none;html=1;rounded=0;exitX=0.98;exitY=0.308;exitDx=0;exitDy=0;exitPerimeter=0;entryX=0.5;entryY=0.5;entryDx=0;entryDy=0;entryPerimeter=0;" edge="1" parent="1" source="1DI5bKhyY3I2mJ6AFxC4-35" target="1DI5bKhyY3I2mJ6AFxC4-4">
          <mxGeometry width="50" height="50" relative="1" as="geometry">
            <mxPoint x="368.8035305606295" y="482.81852070236187" as="sourcePoint" />
            <mxPoint x="580" y="590.0000000000002" as="targetPoint" />
          </mxGeometry>
        </mxCell>
        <mxCell id="1DI5bKhyY3I2mJ6AFxC4-55" value="" style="endArrow=none;html=1;rounded=0;exitX=0.5;exitY=0.5;exitDx=0;exitDy=0;exitPerimeter=0;entryX=0.003;entryY=0.346;entryDx=0;entryDy=0;entryPerimeter=0;" edge="1" parent="1" source="1DI5bKhyY3I2mJ6AFxC4-1" target="1DI5bKhyY3I2mJ6AFxC4-28">
          <mxGeometry width="50" height="50" relative="1" as="geometry">
            <mxPoint x="175" y="609.9999999999998" as="sourcePoint" />
            <mxPoint x="316.1964694393705" y="482.81852070236164" as="targetPoint" />
          </mxGeometry>
        </mxCell>
        <mxCell id="1DI5bKhyY3I2mJ6AFxC4-56" value="" style="endArrow=none;html=1;rounded=0;exitX=1;exitY=0.5;exitDx=0;exitDy=0;entryX=0.5;entryY=0.5;entryDx=0;entryDy=0;entryPerimeter=0;" edge="1" parent="1" source="1DI5bKhyY3I2mJ6AFxC4-34" target="1DI5bKhyY3I2mJ6AFxC4-4">
          <mxGeometry width="50" height="50" relative="1" as="geometry">
            <mxPoint x="493.4999999999998" y="455.4000000000001" as="sourcePoint" />
            <mxPoint x="580" y="340" as="targetPoint" />
          </mxGeometry>
        </mxCell>
        <mxCell id="1DI5bKhyY3I2mJ6AFxC4-58" value="" style="endArrow=none;html=1;rounded=0;exitX=1;exitY=0.5;exitDx=0;exitDy=0;entryX=0.5;entryY=0.5;entryDx=0;entryDy=0;entryPerimeter=0;" edge="1" parent="1" source="1DI5bKhyY3I2mJ6AFxC4-33" target="1DI5bKhyY3I2mJ6AFxC4-4">
          <mxGeometry width="50" height="50" relative="1" as="geometry">
            <mxPoint x="495" y="395" as="sourcePoint" />
            <mxPoint x="550" y="333" as="targetPoint" />
          </mxGeometry>
        </mxCell>
        <mxCell id="1DI5bKhyY3I2mJ6AFxC4-59" value="" style="endArrow=none;html=1;rounded=0;exitX=1;exitY=1;exitDx=0;exitDy=0;entryX=0.5;entryY=0.5;entryDx=0;entryDy=0;entryPerimeter=0;" edge="1" parent="1" source="1DI5bKhyY3I2mJ6AFxC4-32" target="1DI5bKhyY3I2mJ6AFxC4-4">
          <mxGeometry width="50" height="50" relative="1" as="geometry">
            <mxPoint x="495" y="325" as="sourcePoint" />
            <mxPoint x="580" y="340" as="targetPoint" />
          </mxGeometry>
        </mxCell>
        <mxCell id="1DI5bKhyY3I2mJ6AFxC4-60" value="Add contact us" style="ellipse;whiteSpace=wrap;html=1;" vertex="1" parent="1">
          <mxGeometry x="400" y="140" width="75" height="50" as="geometry" />
        </mxCell>
        <mxCell id="1DI5bKhyY3I2mJ6AFxC4-61" value="" style="endArrow=none;html=1;rounded=0;exitX=1;exitY=1;exitDx=0;exitDy=0;entryX=0.5;entryY=0.5;entryDx=0;entryDy=0;entryPerimeter=0;" edge="1" parent="1" source="1DI5bKhyY3I2mJ6AFxC4-60" target="1DI5bKhyY3I2mJ6AFxC4-4">
          <mxGeometry width="50" height="50" relative="1" as="geometry">
            <mxPoint x="483.803530560622" y="262.81852070235675" as="sourcePoint" />
            <mxPoint x="580" y="340" as="targetPoint" />
          </mxGeometry>
        </mxCell>
        <mxCell id="1DI5bKhyY3I2mJ6AFxC4-62" value="" style="endArrow=none;html=1;rounded=0;exitX=0.5;exitY=0.5;exitDx=0;exitDy=0;exitPerimeter=0;entryX=0;entryY=0.5;entryDx=0;entryDy=0;" edge="1" parent="1" source="1DI5bKhyY3I2mJ6AFxC4-1" target="1DI5bKhyY3I2mJ6AFxC4-10">
          <mxGeometry width="50" height="50" relative="1" as="geometry">
            <mxPoint x="175" y="330" as="sourcePoint" />
            <mxPoint x="305.22500000000014" y="457.29999999999995" as="targetPoint" />
          </mxGeometry>
        </mxCell>
        <mxCell id="1DI5bKhyY3I2mJ6AFxC4-63" value="" style="endArrow=none;html=1;rounded=0;entryX=0;entryY=0.5;entryDx=0;entryDy=0;exitX=0.5;exitY=0.5;exitDx=0;exitDy=0;exitPerimeter=0;" edge="1" parent="1" source="1DI5bKhyY3I2mJ6AFxC4-1" target="1DI5bKhyY3I2mJ6AFxC4-9">
          <mxGeometry width="50" height="50" relative="1" as="geometry">
            <mxPoint x="170" y="325" as="sourcePoint" />
            <mxPoint x="305" y="395" as="targetPoint" />
          </mxGeometry>
        </mxCell>
        <mxCell id="1DI5bKhyY3I2mJ6AFxC4-64" value="" style="endArrow=none;html=1;rounded=0;entryX=0;entryY=0.5;entryDx=0;entryDy=0;exitX=0.5;exitY=0.5;exitDx=0;exitDy=0;exitPerimeter=0;" edge="1" parent="1" source="1DI5bKhyY3I2mJ6AFxC4-1" target="1DI5bKhyY3I2mJ6AFxC4-8">
          <mxGeometry width="50" height="50" relative="1" as="geometry">
            <mxPoint x="165" y="320" as="sourcePoint" />
            <mxPoint x="305" y="335" as="targetPoint" />
          </mxGeometry>
        </mxCell>
        <mxCell id="1DI5bKhyY3I2mJ6AFxC4-65" value="" style="endArrow=none;html=1;rounded=0;entryX=0.003;entryY=0.715;entryDx=0;entryDy=0;entryPerimeter=0;exitX=0.5;exitY=0.5;exitDx=0;exitDy=0;exitPerimeter=0;" edge="1" parent="1" source="1DI5bKhyY3I2mJ6AFxC4-1" target="1DI5bKhyY3I2mJ6AFxC4-6">
          <mxGeometry width="50" height="50" relative="1" as="geometry">
            <mxPoint x="175" y="330" as="sourcePoint" />
            <mxPoint x="308.97500000000014" y="292.6" as="targetPoint" />
          </mxGeometry>
        </mxCell>
        <mxCell id="1DI5bKhyY3I2mJ6AFxC4-66" value="" style="endArrow=none;html=1;rounded=0;entryX=0;entryY=0.5;entryDx=0;entryDy=0;exitX=0.5;exitY=0.5;exitDx=0;exitDy=0;exitPerimeter=0;" edge="1" parent="1" source="1DI5bKhyY3I2mJ6AFxC4-1" target="1DI5bKhyY3I2mJ6AFxC4-7">
          <mxGeometry width="50" height="50" relative="1" as="geometry">
            <mxPoint x="180" y="244.25" as="sourcePoint" />
            <mxPoint x="310.22500000000014" y="140" as="targetPoint" />
          </mxGeometry>
        </mxCell>
        <mxCell id="1DI5bKhyY3I2mJ6AFxC4-67" value="" style="swimlane;startSize=0;" vertex="1" parent="1">
          <mxGeometry x="250" y="100" width="260" height="540" as="geometry" />
        </mxCell>
      </root>
    </mxGraphModel>
  </diagram>
</mxfile>
